<svg version="1.1" id="Layer_1" xmlns="http://www.w3.org/2000/svg" xmlns:xlink="http://www.w3.org/1999/xlink" x="0px" y="0px"
	 width="100%" viewBox="0 0 1024 1024" enable-background="new 0 0 1024 1024" xml:space="preserve">
<path fill="#000000" opacity="1.000000" stroke="none" 
	d="
M783.535583,718.382202 
	C824.834290,738.647522 866.701416,757.000610 905.526489,781.215759 
	C925.325378,793.564270 944.665955,806.594299 962.003174,822.356079 
	C968.218689,828.006897 968.961182,831.539001 964.750671,836.741272 
	C960.787170,841.638367 955.008850,842.221130 949.259888,837.655579 
	C938.958130,829.474304 929.344727,820.400085 918.471680,812.966187 
	C896.842346,798.178162 873.632080,786.080811 850.434509,774.022705 
	C821.768616,759.122192 793.123657,744.167480 763.848877,730.472412 
	C762.214783,729.707886 760.663940,728.668884 758.069031,728.626831 
	C756.152832,735.724304 754.393005,742.929993 752.261902,750.024231 
	C738.564941,795.620483 724.077637,840.940491 704.511292,884.453186 
	C702.117676,889.776123 699.472961,894.949890 696.035645,899.709167 
	C691.014160,906.661987 684.279419,908.554688 676.223450,906.667969 
	C665.225403,904.092346 657.205872,896.514099 648.841736,889.755798 
	C635.625549,879.076965 622.434448,868.371094 608.884705,858.120117 
	C602.186829,853.052795 600.312195,853.120850 593.330078,858.061462 
	C588.571899,861.428284 583.959900,865.000793 579.235962,868.416992 
	C565.471436,878.370972 550.415466,885.574951 533.911377,889.732544 
	C530.527283,890.585022 527.292603,890.144287 524.060608,889.264099 
	C520.009583,888.160950 517.378357,885.620300 516.730835,881.354919 
	C516.047729,876.855713 517.998169,873.632019 521.766113,871.332703 
	C524.106201,869.904602 526.783447,869.513489 529.376282,869.048706 
	C544.962097,866.254211 558.759644,859.668335 571.110107,849.846191 
	C575.542175,846.321533 580.133484,842.996521 584.665222,839.597900 
	C594.552979,832.182495 604.894226,831.818726 615.492249,837.866333 
	C618.954956,839.842346 622.405823,841.975464 625.446350,844.531311 
	C637.812622,854.926758 651.079651,864.225342 662.844849,875.351990 
	C668.183594,880.400879 674.229553,884.427185 681.310059,887.636536 
	C686.759949,877.968018 691.303833,868.189209 695.458801,858.237671 
	C707.845825,828.569702 716.850037,797.700500 727.531250,767.426086 
	C732.456421,753.466309 736.726379,739.294800 740.643005,725.017395 
	C741.185059,723.041382 741.391724,721.252869 740.500000,719.244446 
	C729.070923,693.504028 717.397888,667.894470 701.639343,644.405762 
	C700.435303,642.611084 699.004883,640.969727 697.741760,639.212524 
	C697.153503,638.394165 696.714111,637.468933 696.372620,636.878235 
	C693.737305,638.031799 694.366821,639.589844 694.422485,640.725464 
	C696.124817,675.421021 682.338928,704.905151 663.642273,732.783447 
	C641.021851,766.512329 612.130127,794.194885 580.442139,819.165039 
	C549.302979,843.702698 516.685730,866.270874 485.211548,890.359802 
	C461.134735,908.787109 445.037933,932.712830 437.223877,962.109436 
	C436.715057,964.023621 436.068115,965.973206 435.084595,967.674561 
	C432.836975,971.562683 429.799225,974.024109 424.831451,972.680725 
	C419.883545,971.342896 417.635834,967.990173 417.707489,963.155151 
	C417.828491,954.993835 421.041870,947.586914 424.153931,940.264893 
	C427.146820,933.223267 430.386658,926.239929 434.148041,919.587219 
	C436.842834,914.820984 436.096558,911.931213 432.205963,908.104553 
	C415.990082,892.154907 398.633270,877.951782 378.561859,866.911621 
	C362.934113,858.315674 349.426208,846.952026 341.759979,830.081360 
	C341.563385,829.648682 341.200226,829.291626 340.724426,828.637634 
	C333.937714,832.583374 328.745575,837.908569 323.879059,843.570557 
	C312.911682,856.330750 299.853302,866.577576 285.641174,875.413086 
	C282.979370,877.067871 279.989838,878.250610 277.050873,879.391907 
	C272.321106,881.228699 267.521454,881.708557 263.483154,877.908569 
	C259.268036,873.942200 258.570068,868.847107 260.451508,863.631287 
	C269.036713,839.830750 274.107300,814.987183 282.167847,791.026978 
	C285.120667,782.249634 288.121796,773.435486 290.124054,763.540833 
	C282.693481,766.644043 275.836243,769.456604 269.019104,772.363281 
	C227.759644,789.954956 187.472748,809.326172 149.803360,833.980164 
	C121.935043,852.219543 101.423065,875.918640 89.924896,907.298584 
	C88.430885,911.375977 86.279762,915.382996 81.368004,916.270752 
	C73.204956,917.745972 68.347473,910.596191 71.561646,901.711792 
	C76.116386,889.121826 82.583527,877.482117 89.627388,866.138977 
	C106.392258,839.141235 130.619232,820.721313 157.889603,805.368164 
	C195.981369,783.922729 235.403244,765.298462 275.403748,747.795166 
	C283.789978,744.125610 291.967255,739.980713 300.278900,736.137146 
	C302.588379,735.069153 303.820343,733.201538 304.811432,731.049133 
	C311.073608,717.449402 316.506958,703.416443 325.599243,691.297241 
	C327.141357,689.241821 325.467377,687.919250 324.488770,686.466064 
	C315.274567,672.783264 306.123535,659.060242 298.868011,644.193787 
	C286.080994,617.993225 277.758484,590.341919 272.802277,561.698486 
	C268.258148,535.436584 265.981873,508.947449 266.673279,482.258850 
	C267.048096,467.789520 268.406036,453.407959 271.074982,439.178284 
	C271.611694,436.316925 271.701447,433.656281 270.987213,430.823578 
	C267.765930,418.047760 267.349335,404.875488 265.731598,391.874359 
	C265.309906,388.485382 264.246033,385.923981 261.260956,384.037140 
	C256.346252,380.930603 254.055252,376.403870 254.593109,370.486755 
	C254.953186,366.525269 254.035995,362.473145 255.235596,358.569946 
	C257.917267,349.844330 264.272064,345.230286 272.853546,343.465973 
	C276.606049,342.694519 277.932800,341.129883 277.653473,337.083649 
	C276.151337,315.324127 275.031097,293.521210 275.211304,271.716553 
	C275.367889,252.768768 276.112457,233.798233 278.577515,214.962830 
	C279.002991,211.712097 278.180115,208.586395 277.370605,205.618347 
	C276.196381,201.312943 277.549164,198.003021 279.424927,194.283829 
	C288.755188,175.783691 301.917053,160.976425 320.008636,150.650131 
	C321.908630,149.565643 324.151459,148.466034 324.839050,145.516052 
	C315.813416,144.213181 307.173157,149.070755 297.796936,146.772980 
	C299.025848,140.655045 302.612549,136.461533 307.006226,132.831253 
	C321.752075,120.647446 337.948090,110.875092 355.674957,103.647583 
	C361.742523,101.173744 367.756653,98.568871 374.253693,95.830612 
	C371.467773,92.440483 368.270752,92.965271 365.504639,92.376160 
	C361.994781,91.628654 356.776093,92.134262 355.985901,88.463730 
	C355.094910,84.325012 360.340302,83.219055 363.459137,81.722832 
	C382.304749,72.681793 402.146729,67.600204 423.137146,67.652611 
	C431.779938,67.674194 440.458130,66.970894 449.059814,68.580711 
	C450.612488,68.871300 452.266174,68.622093 454.657898,68.622093 
	C451.084503,62.549210 443.664825,61.819626 440.491913,54.942680 
	C460.615692,53.911457 479.636261,55.566566 498.379028,59.916706 
	C517.019287,64.243057 535.334045,69.705338 553.824158,79.305664 
	C551.260803,72.367950 545.997986,68.779266 543.761047,62.958672 
	C549.562561,61.980690 554.661621,63.096611 559.735596,64.540070 
	C579.807373,70.250168 597.125549,80.968086 613.246033,93.889732 
	C616.175476,96.237877 619.141968,98.577354 623.104736,100.387863 
	C621.489990,92.158432 614.749512,86.770409 613.871704,78.689560 
	C649.295837,93.181465 668.902405,123.172836 687.931519,153.977219 
	C690.047485,153.214294 690.318481,151.340790 690.923096,149.687592 
	C692.424500,145.582230 694.600464,141.840134 697.352417,138.465317 
	C698.616394,136.915176 700.221802,135.274902 702.395569,135.801819 
	C704.388611,136.284927 704.832947,138.430893 705.233643,140.188568 
	C707.153259,148.609421 706.797607,157.027634 704.844116,165.388992 
	C702.930481,173.579834 702.953369,173.416763 710.790466,176.993835 
	C721.776428,182.008133 732.167786,187.915787 739.528198,197.960999 
	C741.820557,201.089508 743.625305,204.406326 744.452637,208.224319 
	C745.436218,212.763519 743.946411,214.415939 739.278503,213.866608 
	C736.531677,213.543350 733.789978,213.176254 730.066589,212.704895 
	C733.359985,218.990265 737.265503,223.754303 739.749512,229.370880 
	C745.220886,241.742279 747.468750,254.793289 748.248596,268.091766 
	C749.673950,292.399200 747.220947,316.591705 745.458069,340.800293 
	C744.842102,349.258514 744.727417,357.752350 744.299194,366.225647 
	C744.172241,368.737885 745.010864,370.156128 747.527161,371.032715 
	C767.073181,377.842010 775.242737,393.373260 778.274170,412.349335 
	C782.713318,440.137115 775.230591,466.151825 765.365051,491.648895 
	C760.380249,504.532074 755.210205,517.398682 748.143494,529.315857 
	C741.508240,540.505371 732.200378,548.815186 719.942749,553.708618 
	C712.986267,556.485718 706.061584,556.059326 698.789246,553.940063 
	C698.283752,559.712219 697.536377,564.978516 697.421997,570.258484 
	C697.208374,580.113403 695.503967,589.744629 693.732056,599.383301 
	C693.050598,603.090515 692.714783,606.662109 696.263306,609.349426 
	C708.759216,618.812866 717.239075,631.601196 725.008423,644.850098 
	C736.308350,664.119629 745.757935,684.356262 755.271301,704.544128 
	C756.428101,706.998962 757.732788,708.344543 760.569946,709.016296 
	C768.546387,710.905273 775.729858,714.947266 783.535583,718.382202 
M304.388733,277.746429 
	C302.782104,289.251740 301.225769,300.764374 299.552368,312.259979 
	C298.285370,320.963776 296.810577,329.637360 295.544250,338.341248 
	C294.931488,342.552765 296.772156,344.197083 301.015381,343.538300 
	C303.782959,343.108582 305.162781,341.537842 306.060913,338.799225 
	C310.535706,325.155121 320.157593,316.537537 333.417938,311.712036 
	C348.805054,306.112610 364.659698,305.593933 380.661682,307.873047 
	C388.539703,308.995087 396.453674,310.234650 403.980103,312.989746 
	C411.243591,315.648651 413.445160,318.771088 413.323425,326.426025 
	C413.242126,331.539612 415.504364,336.589630 413.567108,341.762939 
	C413.005157,343.263580 414.283844,344.202789 415.500610,344.864624 
	C420.573700,347.623962 424.422821,351.804993 428.266937,355.959351 
	C430.215942,358.065613 432.386627,359.057953 435.292267,359.014038 
	C448.120758,358.820068 460.951202,358.745636 473.781158,358.667297 
	C475.657166,358.655853 477.575287,358.561890 479.034729,357.404510 
	C483.924744,353.526611 488.566010,349.318909 495.360535,346.750946 
	C490.795776,342.375488 491.758667,337.321228 491.377777,332.593567 
	C490.792084,325.323822 493.704041,319.674194 499.813751,315.637024 
	C505.190125,312.084412 511.210205,310.126862 517.390869,308.760834 
	C534.407776,304.999817 551.680664,304.982880 568.981079,305.635742 
	C588.940125,306.388947 606.693237,313.003021 622.117615,325.722382 
	C625.358093,328.394592 628.131287,331.488739 629.518555,335.588989 
	C631.105408,340.279205 629.599121,342.677948 624.685913,342.857452 
	C620.344177,343.016052 615.992065,342.890717 611.644531,342.890717 
	C638.389099,342.719238 662.000488,354.407257 686.134766,363.390259 
	C686.840271,362.113098 687.207397,361.708679 687.286377,361.254181 
	C687.484802,360.112457 687.566467,358.949371 687.671143,357.792694 
	C688.482849,348.825012 684.413818,341.142456 680.489502,333.731995 
	C667.945435,310.044617 662.003845,285.632751 668.319031,258.771973 
	C670.458801,249.670532 670.294617,240.045532 668.223755,230.550461 
	C665.300110,217.145233 657.221497,207.727570 647.525452,198.514587 
	C629.057861,180.966965 606.846985,172.363907 582.309692,170.670029 
	C550.715820,168.489014 519.145264,171.473801 487.678345,174.911011 
	C474.957489,176.300537 462.181213,177.848984 449.353973,177.068268 
	C435.432556,176.220947 421.805359,172.908844 407.888947,171.748810 
	C391.739563,170.402649 376.459290,172.332672 362.163116,180.619308 
	C341.844696,192.396683 328.907623,210.495697 318.525391,230.781982 
	C311.109619,245.271973 307.135071,260.895752 304.388733,277.746429 
M441.226959,387.745880 
	C434.956940,396.535034 433.989777,407.308929 430.316010,417.070618 
	C425.435730,430.038116 421.158295,443.568542 411.432312,453.634857 
	C405.231049,460.053070 402.683319,467.423615 400.750946,475.303925 
	C399.486176,480.461945 397.521423,486.602020 402.063293,491.030365 
	C413.330841,502.016296 426.109131,509.946411 442.882812,507.747345 
	C449.371094,506.896667 455.408936,504.476257 461.465515,502.181274 
	C469.472504,499.147217 477.609070,497.262756 486.288483,497.572906 
	C495.263031,497.893585 498.766418,493.719238 497.473846,484.799408 
	C496.950348,481.186798 495.978455,477.640808 495.269928,474.052765 
	C494.791016,471.627411 495.255798,469.356812 497.144165,467.680511 
	C499.209381,465.847198 501.323212,467.190887 503.175507,468.144470 
	C509.949097,471.631592 511.586517,478.123840 512.285156,484.878632 
	C513.249146,494.199249 511.534393,502.969360 505.069824,510.481049 
	C509.125275,512.322205 512.670410,511.565552 516.100769,511.600647 
	C533.488953,511.778687 550.551025,513.811340 567.085083,519.550720 
	C580.640625,524.256104 589.618591,533.158997 593.811707,546.990051 
	C597.074158,557.751465 596.771912,568.680664 595.804382,579.633240 
	C595.292297,585.430298 594.130432,591.169861 593.112915,597.924805 
	C598.791565,593.856873 603.819885,590.593994 608.471680,586.861816 
	C625.644958,573.083679 642.433411,558.847168 655.237305,540.677551 
	C672.889465,515.627808 678.963318,486.802521 681.575378,457.018982 
	C682.954468,441.294495 683.612427,425.506317 684.559570,409.744659 
	C684.968506,402.940308 685.297485,396.131042 685.637207,389.322723 
	C685.743774,387.186371 685.519348,385.548004 682.662231,385.158752 
	C673.124084,383.859283 663.613586,382.343903 654.117004,380.763824 
	C651.806824,380.379486 650.679565,380.961243 650.260071,383.287598 
	C649.348572,388.342651 648.027954,393.339325 647.383118,398.424347 
	C645.316467,414.721313 641.246704,430.397522 633.804443,445.117279 
	C627.540344,457.506561 617.528137,465.299683 604.108154,468.249939 
	C587.455872,471.910797 570.478699,472.516296 553.491821,472.025421 
	C544.685425,471.770905 535.888123,471.010986 527.102173,470.290497 
	C514.076294,469.222290 502.579803,465.253418 493.981384,454.426575 
	C483.930756,441.771057 477.423737,427.604065 473.696686,412.020416 
	C472.230377,405.889587 471.326019,399.570801 469.280853,393.642914 
	C464.678162,380.301849 451.932526,377.481506 441.226959,387.745880 
M421.847260,847.674500 
	C422.766357,848.858337 423.660004,850.062927 424.608521,851.222717 
	C434.302673,863.075745 442.714478,875.949768 453.327026,887.079834 
	C456.115784,890.004578 458.121002,890.696533 461.419678,887.455994 
	C475.120605,873.996887 490.698944,862.834961 506.081207,851.411316 
	C541.610474,825.025635 578.840149,800.753723 609.557129,768.346130 
	C634.116394,742.435303 655.827271,714.679199 669.167786,681.065186 
	C676.045776,663.734680 676.896545,646.052185 674.623596,626.825317 
	C673.372803,628.866699 672.613953,629.930847 672.030273,631.083557 
	C660.135010,654.575012 644.979370,675.660095 626.762573,694.737915 
	C599.348389,723.447754 568.158997,746.475647 530.910217,760.749146 
	C503.929108,771.088135 475.999908,775.370239 447.208374,772.155884 
	C422.659424,769.415161 400.093201,760.888245 379.482788,747.216675 
	C378.089600,746.292603 376.879974,744.518250 374.464996,745.359192 
	C374.464996,746.156738 374.325745,746.991943 374.485840,747.765015 
	C376.915710,759.496887 379.848389,771.109619 384.376434,782.216431 
	C393.854889,805.466064 406.236053,827.091614 421.847260,847.674500 
M554.282837,355.406281 
	C537.867920,354.762695 521.757324,356.808777 505.910187,361.007965 
	C500.490692,362.444031 495.475128,364.582794 492.948639,370.200409 
	C490.338531,376.003998 488.431274,381.931274 488.298889,388.409515 
	C487.848602,410.450897 496.129913,429.607635 507.631775,447.724854 
	C508.906311,449.732422 510.603302,451.188477 513.108276,451.721649 
	C526.751099,454.625366 540.374634,457.548065 554.424866,457.702087 
	C567.083008,457.840881 579.672119,457.273285 592.260498,455.754517 
	C604.528076,454.274506 613.490723,448.843475 619.918762,437.920563 
	C631.579041,418.106598 632.983704,396.695587 631.525940,374.656982 
	C631.289978,371.088593 629.808777,367.651398 626.206726,366.169525 
	C616.342773,362.111572 606.161255,358.635437 595.582397,357.563446 
	C582.197266,356.207031 568.688171,356.074371 554.282837,355.406281 
M505.498199,552.271667 
	C504.998810,552.266357 504.498444,552.279114 504.000153,552.253052 
	C484.430603,551.230042 464.685699,552.912415 445.337616,548.448853 
	C444.159790,548.177124 442.933502,548.317505 442.007111,549.112183 
	C437.832123,552.693665 432.846527,552.477844 427.811401,552.412842 
	C419.648163,552.307434 411.481171,552.300049 403.318146,552.417480 
	C391.586700,552.586304 379.752991,551.236572 368.308746,554.547180 
	C378.430878,556.597046 388.801147,555.203369 399.081451,556.028931 
	C416.314819,557.412781 433.560303,558.803345 450.828308,559.564697 
	C483.818390,561.019226 516.685547,557.480469 549.620056,556.535583 
	C552.354980,556.457031 555.172852,556.259949 556.597717,559.170105 
	C558.177734,562.397156 559.007629,565.794739 556.706726,569.117249 
	C555.854309,570.348083 554.975159,571.580383 553.961609,572.676514 
	C542.071350,585.535461 529.818481,597.967346 515.060425,607.671570 
	C493.330566,621.960144 470.141388,630.610962 443.572235,627.475342 
	C408.105103,623.289612 383.393341,603.613342 365.754669,573.728760 
	C362.444855,568.121033 361.766602,561.931763 363.341614,555.570435 
	C359.928314,554.835693 358.342041,556.258179 357.939911,559.583618 
	C357.582214,562.541748 356.651672,565.439087 356.395660,568.399719 
	C354.340698,592.163696 359.481049,614.645325 368.653351,636.405334 
	C373.875366,648.793823 380.830963,659.748047 392.981110,666.507202 
	C397.073090,668.783630 401.253754,670.722534 406.137970,670.688599 
	C409.127502,670.667786 409.990143,669.525757 409.304718,666.688293 
	C408.408478,662.977661 407.523468,659.246948 406.963409,655.475891 
	C405.463989,645.379822 411.050903,639.815369 420.815155,641.492126 
	C422.777496,641.829041 424.739594,642.175232 426.711426,642.447449 
	C438.857849,644.123962 450.883698,647.052734 463.337952,644.773438 
	C469.527893,643.640503 475.855164,643.083984 482.146423,642.728699 
	C488.109985,642.391907 489.147491,643.700378 489.361938,649.528259 
	C489.633514,656.908630 488.291534,664.110718 486.807922,671.252930 
	C486.062805,674.839783 487.176147,675.918884 490.466431,675.649902 
	C491.951172,675.528564 493.458466,675.472900 494.908051,675.164490 
	C506.103180,672.782166 515.818359,667.388184 524.203308,659.795410 
	C549.994812,636.440918 561.963013,606.440857 565.204895,572.503601 
	C566.205139,562.032532 562.895020,557.964600 552.756348,554.646790 
	C550.185669,553.805664 547.618225,553.517700 544.954346,553.267639 
	C532.152405,552.065979 519.318787,552.497742 505.498199,552.271667 
M338.578369,453.675140 
	C351.887329,453.635651 365.175903,453.663361 378.492096,452.805023 
	C391.590027,451.960754 400.714142,446.667480 406.173401,434.460876 
	C411.754364,421.982117 418.074738,409.677734 419.202881,395.906982 
	C420.649475,378.249359 415.770020,362.974823 397.635498,358.108673 
	C393.004578,356.865997 388.229645,355.795471 383.465393,355.478119 
	C364.353912,354.204926 345.211670,353.406067 326.098267,355.407745 
	C318.009613,356.254822 309.929626,357.352997 302.164948,359.982910 
	C300.070190,360.692444 298.133087,361.414429 298.131836,364.286102 
	C298.126343,376.790466 296.176392,389.119415 294.173737,401.400421 
	C293.052277,408.277740 292.176910,415.327423 289.576202,421.875488 
	C286.505615,421.309509 286.067505,419.440613 285.549042,417.419952 
	C283.280548,408.578033 283.204346,399.648407 284.184540,390.649963 
	C284.939789,383.716766 285.655396,376.779266 286.498871,368.800629 
	C282.533569,374.575989 281.624298,380.165222 281.413605,385.788605 
	C280.911652,399.184937 283.094177,412.327301 286.458740,425.215057 
	C290.100464,439.164307 298.091766,449.101471 313.337646,451.204712 
	C321.392914,452.315979 329.437256,453.624634 338.578369,453.675140 
M380.555908,466.361328 
	C377.754974,466.690460 374.961273,467.111633 372.151886,467.333496 
	C356.215546,468.592102 340.294830,468.894958 324.328247,467.444427 
	C313.262207,466.439117 302.649872,464.315247 292.964264,458.597839 
	C291.474243,457.718262 290.050964,456.276062 287.781372,457.127777 
	C287.312317,460.341003 286.663391,463.587280 286.388489,466.864868 
	C284.632263,487.805725 284.801147,508.717316 288.399078,529.464355 
	C289.943970,538.372803 289.963043,547.674133 295.129852,555.767456 
	C301.680481,566.028564 308.785950,575.865356 316.509979,585.255615 
	C317.903625,586.949829 319.205841,589.107056 322.095886,589.222656 
	C323.298248,586.943176 323.693665,584.560364 323.669556,582.039429 
	C323.593048,574.049194 323.675262,566.056152 323.500000,558.068481 
	C323.037201,536.979248 332.790741,522.567566 352.458649,515.873840 
	C360.194366,513.241028 368.270477,512.182068 376.413147,511.626465 
	C382.252380,511.228027 388.083130,510.705566 394.887238,510.160797 
	C382.344299,495.524902 380.725311,480.966522 392.456909,465.755096 
	C388.192993,464.652161 384.855133,466.107971 380.555908,466.361328 
M390.221558,836.207214 
	C381.681885,821.326477 373.729065,806.144348 367.000244,790.351135 
	C359.590912,772.960693 354.246552,754.928711 353.937744,735.967957 
	C353.834839,729.646545 352.625183,724.932251 348.296692,720.573486 
	C344.622314,716.873352 342.055817,712.113525 337.890198,708.742126 
	C334.816071,711.472900 333.138855,714.552124 331.484802,717.612000 
	C326.885864,726.119751 322.939850,734.959595 319.772156,744.068726 
	C307.868103,778.300354 295.162415,812.259155 284.518585,846.921326 
	C283.927368,848.846680 282.647400,850.733276 283.329956,853.070801 
	C285.847656,851.998230 287.572327,850.196533 289.421234,848.540100 
	C303.533813,835.896790 315.952606,821.367554 332.034912,810.910217 
	C343.125946,803.698486 349.906433,804.925171 355.860413,816.756775 
	C361.409515,827.783936 368.985565,836.612183 379.554443,843.056458 
	C387.399658,847.839905 394.299805,854.124146 403.795380,858.782288 
	C398.963654,850.729919 394.791656,843.776978 390.221558,836.207214 
M748.744934,486.470062 
	C753.433167,471.753479 758.879211,457.166748 760.202026,441.667389 
	C761.231750,429.602783 762.107605,417.354462 757.793823,405.597687 
	C754.876404,397.646606 750.457825,390.808197 741.599365,388.639954 
	C728.862976,385.522552 710.498169,399.130585 709.384155,412.321442 
	C708.070557,427.875488 706.374634,443.392059 705.062317,458.949738 
	C703.244263,480.503265 702.552795,502.100922 701.181213,523.665710 
	C700.403381,535.894775 710.392151,537.876953 718.139771,534.035889 
	C725.523010,530.375488 731.008911,524.701355 735.460754,517.877747 
	C741.625427,508.428925 745.461792,497.999298 748.744934,486.470062 
M445.557373,597.698364 
	C458.053467,597.935486 470.518951,597.686218 482.891846,595.628601 
	C495.098816,593.598511 507.075165,590.915649 517.558594,583.845215 
	C521.526672,581.169006 525.170837,578.184570 527.833130,571.931458 
	C480.467773,575.287354 434.261139,573.215271 387.283203,572.026672 
	C390.776459,576.984192 394.298279,580.505920 398.201172,583.628174 
	C411.775055,594.486816 427.816528,597.299011 445.557373,597.698364 
M347.705872,340.614838 
	C347.886627,340.331940 348.831696,341.136047 348.452820,340.092316 
	C348.419617,340.000824 348.152496,339.978271 347.989441,339.952087 
	C342.632477,339.092529 337.275269,338.914551 331.894897,340.620117 
	C336.956909,340.620117 342.018890,340.620117 347.705872,340.614838 
z"/>
<path fill="#000000" opacity="1.000000" stroke="none" 
	d="
M528.898010,382.762756 
	C541.739075,374.551117 555.367981,372.444000 569.693970,375.729431 
	C578.028503,377.640808 585.499939,381.838531 592.339722,386.950378 
	C595.166138,389.062683 597.317993,391.886658 597.299866,395.757324 
	C597.286255,398.663757 596.243958,401.086578 593.381348,402.078400 
	C590.727417,402.997925 588.513489,401.965820 586.874268,399.685364 
	C584.712830,396.678375 582.255798,394.077637 578.020752,393.491974 
	C576.497986,396.958710 577.550354,400.451569 577.373596,403.816315 
	C576.749573,415.692230 566.937073,424.309265 556.131714,422.322754 
	C548.334534,420.889282 541.049622,411.842010 540.691711,403.005981 
	C540.558289,399.713165 540.670105,396.410461 540.670105,392.941010 
	C537.161133,392.410583 535.090515,394.568634 532.885864,396.066162 
	C530.419495,397.741455 528.347107,400.002106 525.863464,401.645691 
	C521.971252,404.221497 518.208313,402.221161 517.677673,397.573792 
	C517.117920,392.671295 519.540771,389.306061 523.222229,386.588379 
	C524.958801,385.306396 526.782959,384.142975 528.898010,382.762756 
z"/>
<path fill="#000000" opacity="1.000000" stroke="none" 
	d="
M410.487732,395.673035 
	C407.773407,402.458771 404.343964,403.086792 400.111176,397.804138 
	C397.450989,394.484161 394.342468,391.867889 389.463104,390.010162 
	C391.457733,397.255798 391.482269,404.078430 387.969299,410.296875 
	C384.384735,416.642090 379.000183,420.600403 371.370026,420.304840 
	C363.749756,420.009674 359.693909,414.742462 356.228912,408.828735 
	C352.638672,402.701141 353.399994,396.118713 354.711517,388.885834 
	C349.205658,390.861603 345.011780,393.654541 341.095886,396.958923 
	C338.539673,399.115967 335.755493,401.911255 332.422302,398.905731 
	C329.441132,396.217560 330.297638,392.533203 331.682739,389.177399 
	C332.529633,387.125610 334.066376,385.509338 335.810883,384.249023 
	C357.286224,368.734070 379.400787,365.958588 402.486023,382.526672 
	C406.921570,385.709991 411.069305,389.012909 410.487732,395.673035 
z"/>
<path fill="#000000" opacity="1.000000" stroke="none" 
	d="
M730.768555,481.524567 
	C728.514160,485.769928 725.462280,488.770874 721.926453,491.367889 
	C719.864624,492.882233 717.715759,494.710327 715.256226,492.759674 
	C712.610596,490.661377 713.701355,487.862671 715.062317,485.502594 
	C718.304321,479.880585 719.928772,473.949310 719.703125,467.410248 
	C719.535583,462.553284 718.504211,458.160034 714.858398,454.751495 
	C710.148499,450.348083 708.791016,445.332275 710.614014,438.982697 
	C714.378662,425.869873 720.942932,414.898956 732.824890,407.644012 
	C738.096069,404.425507 743.681213,403.612976 749.527344,406.031799 
	C753.134644,407.524353 755.414429,410.173157 756.603210,413.910400 
	C758.068665,418.517792 757.339294,420.808838 752.781860,420.893829 
	C739.491577,421.141632 733.935059,430.514984 728.515198,440.276428 
	C727.644897,441.843933 726.647583,443.487946 728.276917,445.302399 
	C738.392456,456.567352 735.984558,468.791992 730.768555,481.524567 
z"/>
</svg>